<svg height="120" viewBox="0 0 120 120" width="120" xmlns="http://www.w3.org/2000/svg" xmlns:xlink="http://www.w3.org/1999/xlink"><clipPath id="a"><path d="m540 1506h120v120h-120z"/></clipPath><g clip-path="url(#a)" fill="#020101" transform="translate(-540 -1506)"><path d="m107.218 105.35a1.9 1.9 0 0 0 -2.555.827l-12.716 24.923a1.907 1.907 0 0 0 .825 2.562 1.894 1.894 0 0 0 2.554-.826l12.714-24.923a1.9 1.9 0 0 0 -.822-2.563z" transform="translate(499.932 1460.73)"/><path d="m137.591 103.536a1.9 1.9 0 0 0 -2.684 2.691l12.126 12.156-12.126 12.157a1.9 1.9 0 1 0 2.685 2.691l13.47-13.5a1.909 1.909 0 0 0 0-2.693z" transform="translate(482.864 1461.593)"/><path d="m64.64 103.537a1.893 1.893 0 0 0 -2.684 0l-13.467 13.5a1.909 1.909 0 0 0 0 2.693l13.467 13.5a1.9 1.9 0 1 0 2.685-2.691l-12.123-12.154 12.124-12.156a1.907 1.907 0 0 0 -.002-2.692z" transform="translate(517.478 1461.593)"/><path d="m123.537 17.761h-116.096a1.9 1.9 0 0 0 -1.9 1.9v101.739a1.9 1.9 0 0 0 1.9 1.9h116.1a1.9 1.9 0 0 0 1.9-1.9v-101.736a1.9 1.9 0 0 0 -1.904-1.903zm-1.9 3.807v23.932h-112.298v-23.932zm-112.298 97.926v-70.185h112.3v70.185z" transform="translate(534.457 1495.583)"/><path d="m27.359 43.6h8.718a1.9 1.9 0 0 0 0-3.807h-8.718a1.9 1.9 0 0 0 0 3.807z" transform="translate(526.479 1486.796)"/><path d="m58.524 43.6h8.718a1.9 1.9 0 0 0 0-3.807h-8.718a1.9 1.9 0 0 0 0 3.807z" transform="translate(513.996 1486.796)"/></g><path d="m0 0h120v120h-120z" fill="#fff" opacity="0"/></svg>