<svg viewBox="0 0 433.744 800" width="628" xmlns="http://www.w3.org/2000/svg"><path d="m376.913 2h-320.057c-30.638 0-55.772 25.086-55.772 55.759v684.469c0 30.686 25.134 55.772 55.772 55.772h320.057c30.661 0 55.747-25.086 55.747-55.772v-684.469c0-30.673-25.086-55.759-55.747-55.759zm-200.709 34.451h81.308c2.602 0 4.679 2.087 4.679 4.651s-2.077 4.641-4.679 4.641h-81.308c-2.551 0-4.625-2.077-4.625-4.641-.001-2.564 2.074-4.651 4.625-4.651zm40.667 727.861c-13.856 0-25.16-11.266-25.16-25.159 0-13.907 11.304-25.149 25.16-25.149 13.906 0 25.137 11.243 25.137 25.149-.001 13.893-11.231 25.159-25.137 25.159zm154.439-104.342h-308.853v-559.905h308.853z" fill="#040000"/></svg>