<svg viewBox="0 0 550.002 800" width="890" xmlns="http://www.w3.org/2000/svg"><path d="m504.406 2h-458.797c-24.312 0-44.234 19.901-44.234 44.226v707.54c0 24.335 19.922 44.234 44.234 44.234h458.798c24.327 0 44.221-19.899 44.221-44.234v-707.54c-.001-24.325-19.894-44.226-44.222-44.226zm-229.412 40.827c6.621 0 11.933 5.334 11.933 11.933 0 6.598-5.311 11.94-11.933 11.94-6.576 0-11.933-5.342-11.933-11.94-.001-6.599 5.356-11.933 11.933-11.933zm0 728.719c-11.308 0-20.503-9.187-20.503-20.533 0-11.337 9.194-20.517 20.503-20.517 11.352 0 20.546 9.179 20.546 20.517 0 11.346-9.194 20.533-20.546 20.533zm221.364-78.173-442.714-.029v-586.74h442.714z" fill="#040000"/></svg>