<svg xmlns="http://www.w3.org/2000/svg" width="120" height="120.074" viewBox="0 0 120 120.074">
  <g id="web-design" transform="translate(-994 -1913)">
    <path id="Tilda_Icons_19ad_design" d="M125.474,27.74,104.227,6.67a2.06,2.06,0,0,0-2.9,0l-37.8,37.486L40.706,21.889c-.018-.018-.041-.03-.06-.046a2.033,2.033,0,0,0-.242-.186c-.041-.027-.079-.057-.122-.081a2.133,2.133,0,0,0-.321-.142c-.029-.009-.053-.027-.082-.037L8.971,11.821a2.069,2.069,0,0,0-2.06.5A2.018,2.018,0,0,0,6.4,14.366l9.659,30.649a2.006,2.006,0,0,0,.257.516c.034.051.075.093.113.141a1.974,1.974,0,0,0,.149.186L39.38,68.1l-32.7,32.433a2.019,2.019,0,0,0,0,2.873L27.924,124.48a2.063,2.063,0,0,0,2.9,0L63.864,91.713,90.6,117.478a2.03,2.03,0,0,0,1.209.532,16.8,16.8,0,0,0,23.186-.431,16.5,16.5,0,0,0,.242-23.2,2.024,2.024,0,0,0-.537-.9L87.886,67.891l37.589-37.277a2.022,2.022,0,0,0,0-2.874ZM36.735,24.683,35.2,29.843l-7.138,2.082A2.041,2.041,0,0,0,26.678,33.3l-2.1,7.077L19.374,41.9l-7.891-25.04ZM29.371,120.17,11.02,101.97l7.72-7.656,9.175,9.1a2.063,2.063,0,0,0,2.9,0,2.019,2.019,0,0,0,0-2.873l-9.175-9.1,7.518-7.455,9.175,9.1a2.063,2.063,0,0,0,2.9,0,2.019,2.019,0,0,0,0-2.873l-9.175-9.1L42.312,70.942l18.614,17.94Zm82.72-5.464a12.73,12.73,0,0,1-16.8.941l17.746-17.6A12.468,12.468,0,0,1,112.092,114.705ZM92,113.167,43.592,66.509,21.939,45.384l4.87-1.42A2.04,2.04,0,0,0,28.2,42.588l2.1-7.077,7.138-2.082a2.04,2.04,0,0,0,1.388-1.376l1.451-4.889L83.5,69.339l26.853,25.633ZM84.948,65.057l-18.5-18.052L76.964,36.577l9.175,9.1a2.063,2.063,0,0,0,2.9,0,2.019,2.019,0,0,0,0-2.873l-9.175-9.1L88.4,25.232l9.175,9.1a2.063,2.063,0,0,0,2.9,0,2.019,2.019,0,0,0,0-2.873L91.3,22.36,102.78,10.979l18.349,18.2Z" transform="translate(987.925 1908)"/>
    <rect id="長方形_35" data-name="長方形 35" width="120" height="120" transform="translate(994 1913)" fill="#fff" opacity="0"/>
  </g>
</svg>
