<svg height="120" viewBox="0 0 120 120" width="120" xmlns="http://www.w3.org/2000/svg" xmlns:xlink="http://www.w3.org/1999/xlink"><clipPath id="a"><path d="m970 1524h120v120h-120z"/></clipPath><g clip-path="url(#a)" fill="#231f20" transform="translate(-970 -1524)"><path d="m112.621 7.538h-90.045a14.651 14.651 0 0 0 -14.633 14.634v61.971a14.648 14.648 0 0 0 14.633 14.631h31.992v24.777h-24.8a1.994 1.994 0 1 0 0 3.988h75.653a1.994 1.994 0 1 0 0-3.988h-24.8v-24.777h31.999a14.646 14.646 0 0 0 14.628-14.631v-61.971a14.646 14.646 0 0 0 -14.627-14.634zm-90.045 3.988h90.045a10.655 10.655 0 0 1 10.64 10.646v46.988h-111.329v-46.988a10.656 10.656 0 0 1 10.644-10.646zm54.065 112.025h-18.084v-24.777h18.084zm35.98-28.764h-90.043a10.657 10.657 0 0 1 -10.646-10.644v-10.994h111.329v10.994a10.654 10.654 0 0 1 -10.64 10.643z" transform="translate(962.405 1516.462)"/><path d="m76.3 88.479a7.46 7.46 0 1 0 7.46 7.46 7.471 7.471 0 0 0 -7.46-7.46zm0 10.932a3.472 3.472 0 1 1 3.472-3.472 3.479 3.479 0 0 1 -3.472 3.471z" transform="translate(953.707 1504.899)"/></g><path d="m0 0h120v120h-120z" fill="#fff" opacity="0"/></svg>